<svg width="64" height="40" viewBox="0 0 64 40" fill="none" xmlns="http://www.w3.org/2000/svg">
<g clip-path="url(#clip0_445_109)">
<path d="M4.19013 0.304457C5.70185 0.304457 6.82994 0.268212 7.95517 0.311706C10.0587 0.394344 11.6617 1.37151 12.6272 3.2838C13.3432 4.70025 13.2476 6.14715 12.5017 7.54621C12.275 7.97245 12.2707 7.9681 12.7057 8.17688C14.3358 8.95542 15.3384 10.266 15.6136 12.0522C15.8775 13.7688 15.2328 15.2012 14.0021 16.403C12.8027 17.5745 11.3024 18.0703 9.76068 18.4937C8.20903 18.9199 6.61744 18.9445 5.02443 18.9286C4.04324 18.9184 3.06062 18.9329 2.078 18.9126C1.6145 18.9039 1.15243 18.8329 0.68893 18.8039C0.460746 18.7894 0.375176 18.6763 0.365193 18.456C0.323835 17.5092 0.252527 16.564 0.235414 15.6173C0.151271 10.8358 0.0785368 6.05582 9.8447e-05 1.27582C-0.00988462 0.565421 0.0599969 0.49583 0.770221 0.465385C2.03807 0.410292 3.30592 0.346501 4.19156 0.304457H4.19013ZM4.21295 13.083C4.22864 13.083 4.24575 13.083 4.26144 13.083C4.26144 13.5701 4.26715 14.0573 4.25859 14.5444C4.25431 14.7851 4.34986 14.888 4.58375 14.8518C4.85187 14.8112 5.11856 14.7662 5.38667 14.7256C6.6588 14.5299 7.93521 14.3646 9.19878 14.1225C9.745 14.0181 10.3098 13.8325 10.7775 13.5382C11.5419 13.0569 11.5305 12.2131 10.7576 11.7709C10.3254 11.5245 9.79063 11.3621 9.29718 11.3476C7.72129 11.2997 6.14396 11.3461 4.56664 11.3389C4.28996 11.3389 4.20012 11.4317 4.20867 11.7028C4.22293 12.1624 4.21295 12.6234 4.21295 13.0845V13.083ZM5.535 4.51323C5.535 4.52193 5.53214 4.53063 5.53214 4.53932C5.13139 4.53932 4.73065 4.54367 4.3299 4.53787C4.14307 4.53498 4.04039 4.58137 4.05037 4.80319C4.0846 5.60348 4.09601 6.40667 4.14164 7.20696C4.14735 7.31134 4.30137 7.48967 4.39407 7.49547C5.49364 7.56071 6.57894 7.45052 7.65283 7.18231C8.15769 7.05618 8.43579 6.71548 8.64115 6.28054C8.90927 5.71656 8.53419 4.7046 7.92808 4.67996C7.12943 4.64661 6.33221 4.57122 5.535 4.51323Z" fill="black"/>
<path d="M45.3945 29.2149C44.9182 29.7847 44.449 30.3617 43.9626 30.9242C43.4321 31.5361 42.8916 32.1392 42.3425 32.7322C42.2584 32.8235 42.0944 32.8887 41.9703 32.8829C41.2087 32.8496 40.4457 32.8119 39.6885 32.7292C39.4774 32.7061 39.2492 32.5669 39.0852 32.4161C38.365 31.755 37.6662 31.0692 36.9588 30.3936C36.8775 30.3168 36.7862 30.2501 36.608 30.1037C36.608 30.3371 36.6065 30.4719 36.608 30.6067C36.6522 33.1743 36.7007 35.7405 36.7335 38.3081C36.7378 38.6589 36.6907 39.0185 36.6065 39.3592C36.5737 39.4911 36.3712 39.6709 36.2443 39.6738C35.0406 39.6883 33.8355 39.6752 32.6319 39.6433C32.5306 39.6404 32.3623 39.4476 32.3509 39.3302C32.3095 38.9387 32.3224 38.5415 32.3195 38.1472C32.2796 33.1033 32.2397 28.0594 32.1997 23.0141C32.1983 22.8039 32.1612 22.5806 32.2154 22.3864C32.2539 22.2472 32.4108 22.0515 32.5277 22.0413C33.4262 21.9674 34.3276 21.9268 35.2289 21.8978C35.3487 21.8934 35.5113 21.9804 35.5868 22.079C36.4397 23.1838 37.2854 24.2943 38.1211 25.4136C38.9654 26.5444 39.7968 27.6854 40.6354 28.8206C40.7039 28.9134 40.7837 28.9975 40.885 29.1178C41.0019 28.967 41.1103 28.8394 41.2059 28.7032C42.7632 26.5082 44.3235 24.3132 45.8737 22.1124C46.0391 21.8775 46.2088 21.8296 46.4941 21.8528C47.1772 21.9079 47.866 21.9123 48.5506 21.8978C48.9043 21.8905 49.0027 22.0486 49.0141 22.3661C49.1039 24.996 49.2237 27.6245 49.2865 30.2544C49.3549 33.0439 49.3749 35.8362 49.4077 38.6256C49.4148 39.265 49.3649 39.3055 48.7417 39.2708C47.8118 39.2186 46.882 39.1606 45.9535 39.0895C45.7496 39.0736 45.5314 39.0359 45.3574 38.9373C45.2405 38.8706 45.1235 38.6792 45.1264 38.5473C45.1392 38.0109 45.2148 37.4759 45.239 36.938C45.2918 35.768 45.3289 34.5966 45.3688 33.4266C45.4116 32.1638 45.453 30.9025 45.4929 29.6397C45.4972 29.5107 45.4929 29.3831 45.4929 29.2541C45.4601 29.2425 45.4273 29.2309 45.3945 29.2207V29.2149Z" fill="black"/>
<path d="M42.8744 10.4908C42.9186 9.8514 42.9757 9.21348 43.0028 8.57412C43.1111 6.06307 43.2067 3.55201 43.3165 1.04096C43.3265 0.822038 43.3793 0.594419 43.4663 0.394347C43.5105 0.292861 43.673 0.187025 43.7871 0.182676C44.6799 0.143531 45.5727 0.108736 46.4654 0.113085C47.0074 0.115985 47.0944 0.22617 47.1086 0.772745C47.1343 1.70787 47.1457 2.64299 47.16 3.57811C47.2284 7.9768 47.2983 12.374 47.3639 16.7727C47.3725 17.3512 47.3582 17.9311 47.3668 18.5096C47.3711 18.7561 47.2427 18.8387 47.0331 18.8431C46.3228 18.8576 45.6126 18.8808 44.9038 18.875C44.4902 18.8721 44.0766 18.8025 43.6631 18.801C43.3393 18.801 43.1368 18.6676 42.9728 18.3922C41.9289 16.6408 40.8721 14.8953 39.8239 13.1468C39.1122 11.9609 38.4091 10.7691 37.6989 9.58173C37.6376 9.48025 37.5463 9.39616 37.4679 9.30482C37.4236 9.31642 37.3809 9.32802 37.3366 9.33962C37.3366 9.54984 37.3309 9.76006 37.3366 9.96883C37.4122 12.2726 37.4935 14.5748 37.5606 16.8786C37.5748 17.3904 37.5363 17.905 37.5192 18.4183C37.5092 18.7401 37.3366 18.9127 37.0257 18.8982C36.0431 18.8532 35.0605 18.7967 34.0793 18.7401C33.7927 18.7242 33.7271 18.5328 33.7214 18.2776C33.6928 16.9221 33.6401 15.5651 33.6287 14.2095C33.5916 9.82385 33.5702 5.43675 33.5431 1.05111C33.5388 0.358102 33.65 0.237768 34.3275 0.247917C35.052 0.259515 35.7793 0.271114 36.5009 0.323306C36.6735 0.336355 36.8974 0.474086 36.9901 0.623415C37.8472 2.01522 38.6929 3.41283 39.5158 4.82639C40.5483 6.59949 41.5566 8.38855 42.5749 10.1704C42.6391 10.282 42.7104 10.3878 42.7774 10.4966C42.8088 10.4951 42.8416 10.4922 42.873 10.4908H42.8744Z" fill="black"/>
<path d="M52.2358 18.9141C51.2289 18.8213 50.5087 18.7575 49.7885 18.6879C49.576 18.6676 49.2822 18.701 49.1753 18.5763C49.0597 18.4415 49.1111 18.1515 49.1011 17.9297C49.0612 17.0627 48.997 16.1943 48.9941 15.3273C48.977 10.6125 48.9685 5.89924 48.9742 1.18449C48.9742 0.0159487 48.9542 0.149331 50.0695 0.0623425C51.6396 -0.0608906 53.2156 -0.00289858 54.7843 0.279813C56.6012 0.607468 58.3454 1.12215 59.9755 2.00942C61.9907 3.10692 63.1672 4.83799 63.7249 7.06198C64.0201 8.24212 64.0472 9.44255 63.9431 10.6299C63.8318 11.8942 63.5281 13.1308 62.8635 14.2457C61.6085 16.3509 59.8357 17.776 57.484 18.3762C56.5656 18.6111 55.6072 18.701 54.6602 18.7938C53.7632 18.8822 52.8576 18.8866 52.2344 18.9156L52.2358 18.9141ZM53.1685 15.0953C54.2067 14.9648 55.1879 14.8402 56.1705 14.7169C57.243 14.5806 58.1101 14.0268 58.866 13.2874C59.5676 12.6002 60.0354 11.7767 59.9555 10.743C59.88 9.76296 59.8029 8.77999 59.6461 7.81153C59.5149 7.00544 59.1398 6.31533 58.4267 5.83545C56.9121 4.81769 55.2435 4.3871 53.448 4.38855C52.9275 4.38855 52.9289 4.39 52.9688 4.89888C52.9817 5.06995 52.9916 5.24103 52.9945 5.41066C53.0444 8.46249 53.0929 11.5143 53.1428 14.5661C53.1442 14.6952 53.1557 14.8228 53.1685 15.0953Z" fill="black"/>
<path d="M30.6137 18.817C30.0062 18.817 29.3972 18.8126 28.7897 18.8184C28.5173 18.8213 28.3761 18.701 28.2834 18.4357C28.0367 17.7325 27.77 17.0366 27.4848 16.3494C27.4363 16.232 27.2551 16.0971 27.1339 16.0957C25.1002 16.0841 23.0665 16.0884 21.0328 16.1087C20.9088 16.1087 20.7205 16.2494 20.6749 16.3697C20.4053 17.0787 20.16 17.7963 19.929 18.5183C19.8392 18.801 19.6823 18.93 19.397 18.93C18.192 18.9286 16.9883 18.9402 15.7832 18.93C15.3639 18.9257 15.2199 18.7271 15.3568 18.3153C15.699 17.2845 16.0584 16.2595 16.4349 15.2403C17.9809 11.0562 19.534 6.87351 21.0856 2.69228C21.3138 2.07902 21.5605 1.473 21.7844 0.856834C21.8971 0.546577 22.1467 0.497284 22.4091 0.491485C23.3019 0.471187 24.196 0.462489 25.0902 0.45524C26.2953 0.446541 26.3025 0.446541 26.7175 1.58173C28.5772 6.68213 30.4326 11.7825 32.2852 16.8858C32.4463 17.328 32.5818 17.7804 32.703 18.2356C32.8072 18.6256 32.6874 18.7807 32.288 18.7894C31.7318 18.8025 31.1742 18.7923 30.6166 18.7923C30.6166 18.801 30.6166 18.8097 30.6166 18.8184L30.6137 18.817ZM23.8324 6.74592C23.1664 8.46974 22.6786 10.2225 22.1053 12.0044H25.8504C25.6079 10.8953 24.1461 6.97499 23.8324 6.74592Z" fill="black"/>
<path d="M29.6425 39.6897C29.0349 39.6897 28.426 39.6854 27.8184 39.6912C27.5446 39.6941 27.4034 39.5694 27.3107 39.307C27.0626 38.6053 26.7959 37.9079 26.5106 37.2207C26.4622 37.1033 26.281 36.9699 26.1598 36.9685C24.1261 36.9569 22.0924 36.9612 20.0587 36.9801C19.9347 36.9801 19.745 37.1207 19.6993 37.2396C19.427 37.9601 19.1831 38.6923 18.9421 39.4259C18.8608 39.6723 18.721 39.7985 18.4643 39.7985C17.2335 39.7985 16.0042 39.8086 14.7734 39.7985C14.4083 39.7956 14.2543 39.5839 14.3712 39.2229C14.6722 38.3023 14.993 37.3875 15.3268 36.4799C16.5946 33.0294 17.8653 29.5803 19.1431 26.1341C19.6894 24.6626 20.2598 23.1997 20.8103 21.7282C20.9273 21.4165 21.174 21.3701 21.435 21.3643C22.3805 21.3425 23.326 21.3324 24.2716 21.3266C25.317 21.3193 25.3127 21.3237 25.6749 22.3139C27.1267 26.2805 28.59 30.2443 30.0332 34.2153C30.6051 35.7883 31.1428 37.3744 31.689 38.9576C31.873 39.4911 31.7532 39.6564 31.1941 39.6636C30.6764 39.6709 30.1573 39.6636 29.6396 39.6636C29.6396 39.6723 29.6396 39.681 29.6396 39.6897H29.6425ZM24.8891 32.8873C24.8449 32.7061 24.8235 32.5654 24.7764 32.432C24.293 31.0373 23.8124 29.6426 23.3132 28.2537C23.2391 28.0493 23.0736 27.8797 22.9495 27.6941C22.8326 27.8855 22.6757 28.0638 22.6058 28.2726C22.1423 29.66 21.6974 31.0547 21.251 32.448C21.2096 32.577 21.2025 32.7162 21.1726 32.8887H24.8891V32.8873Z" fill="black"/>
<path d="M0.0414652 30.9706C0.0714144 28.9308 0.378037 26.9634 1.3521 25.154C2.1921 23.5955 3.41859 22.4705 5.14852 22.0863C7.29202 21.6093 9.33427 21.9036 11.1754 23.2142C12.3919 24.0797 13.3318 25.1714 13.8623 26.598C13.9336 26.7909 13.9693 27.0025 13.985 27.2084C14.0106 27.5491 13.9864 27.8942 14.0178 28.2334C14.0605 28.7075 13.8209 28.9728 13.346 28.8945C12.3534 28.7293 11.3623 28.5596 10.3782 28.3509C10.1857 28.3103 9.95037 28.1189 9.87336 27.9362C9.58527 27.2548 9.11464 26.685 8.53135 26.3458C8.06927 26.0761 7.41325 26.0616 6.84849 26.0819C5.75463 26.1225 5.11144 26.8141 4.71639 27.8101C4.21724 29.0671 4.04895 30.3777 4.15164 31.7086C4.23007 32.7119 4.42403 33.718 4.94743 34.6024C5.4366 35.4302 6.08407 36.1131 7.0838 36.1899C7.53304 36.2247 8.0322 36.0899 8.45291 35.9014C9.53108 35.4201 10.3497 34.5951 11.0499 33.647C11.1498 33.5121 11.2196 33.3527 11.2952 33.2004C11.3936 33.0047 11.4436 32.6843 11.5862 32.635C11.8372 32.5495 12.1466 32.6075 12.4262 32.6423C13.0009 32.7148 13.5699 32.8351 14.1447 32.8902C14.805 32.954 14.9291 33.054 14.8121 33.7079C14.524 35.3186 13.6926 36.6234 12.5488 37.7456C11.328 38.9431 9.86337 39.681 8.20476 39.9159C5.22981 40.3378 2.46165 39.1606 1.02123 36.3277C0.519226 35.3403 0.312434 34.2936 0.225439 33.2062C0.16554 32.461 0.101364 31.7158 0.0400391 30.9692L0.0414652 30.9706Z" fill="black"/>
<path d="M51.186 29.9862C51.186 27.3795 51.1846 24.7727 51.1874 22.166C51.1874 21.7485 51.3115 21.6252 51.7322 21.6339C53.6204 21.6731 55.5115 21.6745 57.3969 21.7833C58.5093 21.847 59.6402 21.876 60.7098 22.3052C62.1631 22.888 63.294 23.7999 63.7604 25.3715C64.1953 26.8373 63.8445 28.1957 63.1015 29.4759C62.3856 30.7082 61.2346 31.3867 59.9525 31.739C58.3909 32.1696 56.7822 32.419 55.1892 32.7249C54.9439 32.7727 54.9425 32.9003 54.9439 33.0772C54.9453 34.9576 54.9439 36.8394 54.9496 38.7198C54.951 39.2316 54.9396 39.2635 54.4305 39.2389C53.4992 39.1954 52.5693 39.133 51.6381 39.0968C51.3543 39.0852 51.3386 38.9286 51.3343 38.7097C51.2872 36.5654 51.2288 34.4212 51.1846 32.2769C51.1689 31.5143 51.1817 30.7503 51.1817 29.9862C51.1817 29.9862 51.1831 29.9862 51.1846 29.9862H51.186ZM55.0979 25.7383C55.0551 26.7662 55.0138 27.7753 54.9681 28.7843C54.9553 29.0598 55.1036 29.0758 55.3161 29.0395C55.811 28.954 56.3101 28.8989 56.8007 28.7974C57.7634 28.5988 58.6818 28.3349 59.4534 27.6303C60.0581 27.0779 59.8613 26.2965 59.1439 26.1327C58.5706 26.0007 57.9873 25.8949 57.4026 25.8412C56.6496 25.7731 55.8909 25.7717 55.0965 25.7383H55.0979Z" fill="black"/>
</g>
<defs>
<clipPath id="clip0_445_109">
<rect width="64" height="40" fill="white"/>
</clipPath>
</defs>
</svg>
